<svg width="44" height="44" viewBox="0 0 44 44" fill="none" xmlns="http://www.w3.org/2000/svg">
<g id="mingcute:alert-diamond-fill" clip-path="url(#clip0_15_229)">
<g id="Group">
<path id="Vector" fill-rule="evenodd" clip-rule="evenodd" d="M24.5923 5.14618L38.852 19.4077C39.5394 20.0953 39.9255 21.0277 39.9255 22C39.9255 22.9723 39.5394 23.9047 38.852 24.5923L24.5923 38.852C23.9047 39.5394 22.9723 39.9256 22 39.9256C21.0277 39.9256 20.0953 39.5394 19.4077 38.852L5.148 24.5923C4.4606 23.9047 4.07445 22.9723 4.07445 22C4.07445 21.0277 4.4606 20.0953 5.148 19.4077L19.4077 5.14618C20.0953 4.45879 21.0277 4.07263 22 4.07263C22.9723 4.07263 23.9047 4.45879 24.5923 5.14618ZM22.0037 27.5C21.5361 27.4996 21.086 27.6779 20.7455 27.9984C20.405 28.3188 20.1998 28.7573 20.172 29.2241C20.1441 29.6908 20.2956 30.1506 20.5956 30.5093C20.8955 30.8681 21.3212 31.0986 21.7855 31.1539L22.0055 31.1667C22.4917 31.1667 22.958 30.9735 23.3019 30.6297C23.6457 30.2859 23.8388 29.8196 23.8388 29.3333C23.8388 28.8471 23.6457 28.3808 23.3019 28.037C22.958 27.6932 22.4917 27.5 22.0055 27.5H22.0037ZM22 14.6667C21.6463 14.6665 21.2961 14.7374 20.9703 14.8752C20.6445 15.013 20.3497 15.2149 20.1035 15.4689C19.8572 15.7228 19.6645 16.0237 19.5368 16.3535C19.4091 16.6834 19.3489 17.0356 19.36 17.3892L19.3783 17.6367L20.1813 24.0607C20.2343 24.4863 20.4348 24.8799 20.7479 25.173C21.0611 25.4661 21.4671 25.6401 21.8953 25.6647C22.3235 25.6893 22.7468 25.5631 23.0915 25.3078C23.4363 25.0526 23.6806 24.6846 23.782 24.2679L23.8187 24.0607L24.6217 17.6367C24.6685 17.2649 24.6357 16.8873 24.5253 16.5292C24.4149 16.1711 24.2296 15.8405 23.9816 15.5596C23.7336 15.2786 23.4286 15.0537 23.0869 14.8998C22.7453 14.7458 22.3747 14.6663 22 14.6667Z" fill="#0F0F0F"/>
</g>
</g>
<defs>
<clipPath id="clip0_15_229">
<rect width="44" height="44" fill="white"/>
</clipPath>
</defs>
</svg>
