<svg width="110" height="110" viewBox="0 0 110 110" fill="none" xmlns="http://www.w3.org/2000/svg">
<g id="f7:drop-fill">
<path id="Vector" fill-rule="evenodd" clip-rule="evenodd" d="M55 104.107C36.5573 104.107 21.6071 89.1569 21.6071 70.7142C21.6071 57.0133 31.6761 36.2057 51.8139 8.28923C52.178 7.78462 52.6566 7.37368 53.2106 7.09027C53.7645 6.80685 54.3778 6.65906 55 6.65906C55.6222 6.65906 56.2355 6.80685 56.7895 7.09027C57.3434 7.37368 57.8221 7.78462 58.1861 8.28923C78.3239 36.2076 88.3929 57.0153 88.3929 70.7142C88.3929 89.1569 73.4427 104.107 55 104.107ZM53.6427 86.2066C53.2697 86.1899 52.8974 86.2529 52.5507 86.3915C52.204 86.5301 51.8908 86.741 51.6321 87.0101C51.3733 87.2793 51.1749 87.6005 51.0501 87.9524C50.9253 88.3043 50.877 88.6788 50.9084 89.0508C51.0361 90.4062 52.2382 91.4041 53.5955 91.2764C60.2898 90.6478 65.4657 88.5028 69.1272 84.8414C72.7886 81.18 74.9336 76.0021 75.5621 69.3098C75.5954 68.9555 75.5516 68.5982 75.4337 68.2625C75.3158 67.9267 75.1266 67.6205 74.8791 67.3648C74.6316 67.1091 74.3318 66.9101 74 66.7813C73.6683 66.6525 73.3127 66.597 72.9575 66.6187C72.2695 66.6603 71.6254 66.9707 71.1642 67.483C70.703 67.9953 70.4617 68.6683 70.4923 69.3569C70.6888 73.7844 69.0388 77.7483 65.5364 81.2507C62.0341 84.753 58.0702 86.405 53.6427 86.2066Z" fill="#0C99CE"/>
</g>
</svg>
