<svg width="110" height="110" viewBox="0 0 110 110" fill="none" xmlns="http://www.w3.org/2000/svg">
<g id="material-symbols:thermostat">
<path id="Vector" d="M59.5833 50.4167V41.25H82.5V50.4167H59.5833ZM59.5833 32.0833V22.9167H96.25V32.0833H59.5833ZM36.6667 96.25C30.3264 96.25 24.9226 94.0149 20.4554 89.5446C15.9882 85.0743 13.7531 79.6706 13.75 73.3333C13.75 69.6667 14.5521 66.2475 16.1563 63.0758C17.7604 59.9042 20.0139 57.2122 22.9167 55V27.5C22.9167 23.6806 24.2535 20.434 26.9271 17.7604C29.6007 15.0868 32.8472 13.75 36.6667 13.75C40.4861 13.75 43.7326 15.0868 46.4062 17.7604C49.0799 20.434 50.4167 23.6806 50.4167 27.5V55C53.3194 57.2153 55.5729 59.9087 57.1771 63.0804C58.7813 66.2521 59.5833 69.6697 59.5833 73.3333C59.5833 79.6736 57.3482 85.0789 52.8779 89.5492C48.4076 94.0194 43.0039 96.2531 36.6667 96.25ZM22.9167 73.3333H50.4167C50.4167 71.1181 49.94 69.0556 48.9867 67.1458C48.0333 65.2361 46.6767 63.6319 44.9167 62.3333L41.25 59.5833V27.5C41.25 26.2014 40.81 25.1136 39.93 24.2367C39.05 23.3597 37.9622 22.9197 36.6667 22.9167C35.3711 22.9136 34.2833 23.3536 33.4033 24.2367C32.5233 25.1197 32.0833 26.2075 32.0833 27.5V59.5833L28.4167 62.3333C26.6597 63.6319 25.3031 65.2361 24.3467 67.1458C23.3903 69.0556 22.9136 71.1181 22.9167 73.3333Z" fill="#BC3036"/>
</g>
</svg>
