<svg width="161" height="162" viewBox="0 0 161 162" fill="none" xmlns="http://www.w3.org/2000/svg">
<g id="ion:cloud">
<path id="Vector" d="M36.4766 136.687H118.234C129.693 136.687 140.359 132.71 148.268 125.484C156.478 117.982 161 107.578 161 96.1875C161 84.6133 156.789 74.6339 148.824 67.3249C143.13 62.0947 135.548 58.3864 127.071 56.6082C126.289 56.4455 125.557 56.0981 124.936 55.5947C124.314 55.0913 123.82 54.4464 123.495 53.7131C120.477 46.8762 115.956 40.8178 110.272 35.9943C101.958 29.0113 91.6631 25.3125 80.5 25.3125C67.943 25.2575 55.8586 30.1263 46.8095 38.8863C39.0331 46.4199 33.7597 56.3772 31.3447 67.9957C31.1508 68.9484 30.6882 69.8248 30.0123 70.5201C29.3365 71.2153 28.4759 71.6999 27.5335 71.916C13.207 75.1211 0 85.5657 0 103.781C0 114.346 3.84891 123.012 11.1348 128.85C17.537 133.976 26.2977 136.687 36.4766 136.687Z" fill="white"/>
</g>
</svg>
