<svg width="110" height="110" viewBox="0 0 110 110" fill="none" xmlns="http://www.w3.org/2000/svg">
<g id="ph:wind-bold">
<path id="Vector" d="M10.3125 44.6875C8.94498 44.6875 7.63347 44.1443 6.66648 43.1773C5.6995 42.2103 5.15625 40.8988 5.15625 39.5312C5.15625 38.1637 5.6995 36.8522 6.66648 35.8852C7.63347 34.9182 8.94498 34.375 10.3125 34.375H51.5625C52.93 34.375 54.2415 33.8318 55.2085 32.8648C56.1755 31.8978 56.7188 30.5863 56.7188 29.2188C56.7188 27.8512 56.1755 26.5397 55.2085 25.5727C54.2415 24.6057 52.93 24.0625 51.5625 24.0625C49.9021 24.1108 48.3238 24.7954 47.1539 25.9746C46.1757 26.8664 44.892 27.3478 43.5687 27.3192C42.2453 27.2905 40.9836 26.7541 40.0449 25.8209C39.1062 24.8877 38.5623 23.6292 38.5258 22.306C38.4894 20.9828 38.9632 19.6963 39.8492 18.7129C42.9585 15.5965 47.1608 13.816 51.5625 13.75C55.6651 13.75 59.5996 15.3797 62.5006 18.2807C65.4015 21.1816 67.0312 25.1162 67.0312 29.2188C67.0312 33.3213 65.4015 37.2559 62.5006 40.1568C59.5996 43.0578 55.6651 44.6875 51.5625 44.6875H10.3125ZM89.375 29.2188C84.9673 29.2803 80.758 31.0611 77.6445 34.1816C76.7586 35.1651 76.2847 36.4516 76.3212 37.7748C76.3576 39.0979 76.9015 40.3564 77.8402 41.2896C78.7789 42.2228 80.0406 42.7593 81.364 42.7879C82.6873 42.8165 83.971 42.3351 84.9492 41.4434C86.1234 40.2601 87.7086 39.5752 89.375 39.5312C90.7425 39.5312 92.054 40.0745 93.021 41.0415C93.988 42.0085 94.5312 43.32 94.5312 44.6875C94.5312 46.055 93.988 47.3665 93.021 48.3335C92.054 49.3005 90.7425 49.8438 89.375 49.8438H13.75C12.3825 49.8438 11.071 50.387 10.104 51.354C9.137 52.321 8.59375 53.6325 8.59375 55C8.59375 56.3675 9.137 57.679 10.104 58.646C11.071 59.613 12.3825 60.1562 13.75 60.1562H89.375C93.4776 60.1562 97.4121 58.5265 100.313 55.6256C103.214 52.7246 104.844 48.7901 104.844 44.6875C104.844 40.5849 103.214 36.6504 100.313 33.7494C97.4121 30.8485 93.4776 29.2188 89.375 29.2188ZM65.3125 65.3125H17.1875C15.82 65.3125 14.5085 65.8557 13.5415 66.8227C12.5745 67.7897 12.0312 69.1012 12.0312 70.4688C12.0312 71.8363 12.5745 73.1478 13.5415 74.1148C14.5085 75.0818 15.82 75.625 17.1875 75.625H65.3125C66.68 75.625 67.9915 76.1682 68.9585 77.1352C69.9255 78.1022 70.4688 79.4137 70.4688 80.7812C70.4688 82.1488 69.9255 83.4603 68.9585 84.4273C67.9915 85.3942 66.68 85.9375 65.3125 85.9375C63.6509 85.889 62.0713 85.2045 60.8996 84.0254C60.4321 83.5065 59.8641 83.0879 59.2299 82.7952C58.5958 82.5024 57.9088 82.3415 57.2106 82.3223C56.5124 82.3031 55.8176 82.4259 55.1683 82.6833C54.519 82.9408 53.9288 83.3274 53.4334 83.8199C52.9381 84.3123 52.548 84.9002 52.2867 85.548C52.0255 86.1957 51.8985 86.8898 51.9136 87.5881C51.9287 88.2864 52.0856 88.9743 52.3746 89.6102C52.6636 90.246 53.0788 90.8166 53.5949 91.2871C56.7052 94.4045 60.9093 96.1851 65.3125 96.25C69.4151 96.25 73.3496 94.6203 76.2506 91.7193C79.1515 88.8184 80.7812 84.8838 80.7812 80.7812C80.7812 76.6787 79.1515 72.7441 76.2506 69.8432C73.3496 66.9422 69.4151 65.3125 65.3125 65.3125Z" fill="#610CCE" fill-opacity="0.74"/>
</g>
</svg>
