<svg width="32" height="32" viewBox="0 0 32 32" fill="none" xmlns="http://www.w3.org/2000/svg">
<g id="mdi:hexagon">
<path id="Vector" d="M28 22C28 22.5067 27.72 22.9467 27.2933 23.1734L16.76 29.0934C16.5467 29.2534 16.28 29.3334 16 29.3334C15.72 29.3334 15.4533 29.2534 15.24 29.0934L4.70667 23.1734C4.49282 23.0611 4.31385 22.8924 4.18924 22.6855C4.06464 22.4786 3.99919 22.2415 4.00001 22V10C4.00001 9.49335 4.28001 9.05335 4.70667 8.82669L15.24 2.90669C15.4533 2.74669 15.72 2.66669 16 2.66669C16.28 2.66669 16.5467 2.74669 16.76 2.90669L27.2933 8.82669C27.72 9.05335 28 9.49335 28 10V22Z" fill="#F6DC04"/>
</g>
</svg>
