<svg width="60" height="60" viewBox="0 0 60 60" fill="none" xmlns="http://www.w3.org/2000/svg">
<g id="material-symbols:cloud">
<path id="Vector" d="M16.25 50C12.4583 50 9.21917 48.6875 6.5325 46.0625C3.84583 43.4375 2.50167 40.2292 2.5 36.4375C2.5 33.1875 3.47917 30.2917 5.4375 27.75C7.39583 25.2083 9.95833 23.5833 13.125 22.875C14.1667 19.0417 16.25 15.9375 19.375 13.5625C22.5 11.1875 26.0417 10 30 10C34.875 10 39.0108 11.6983 42.4075 15.095C45.8042 18.4917 47.5017 22.6267 47.5 27.5C50.375 27.8333 52.7608 29.0733 54.6575 31.22C56.5542 33.3667 57.5017 35.8767 57.5 38.75C57.5 41.875 56.4067 44.5317 54.22 46.72C52.0333 48.9083 49.3767 50.0017 46.25 50H16.25Z" fill="#F6DC04"/>
</g>
</svg>
